<svg width="100" height="100" viewBox="0 0 100 100" fill="none" xmlns="http://www.w3.org/2000/svg">
<path d="M49.6672 91.3333C72.679 91.3333 91.3338 72.6785 91.3338 49.6667C91.3338 26.6548 72.679 8 49.6672 8C26.6553 8 8.00049 26.6548 8.00049 49.6667C8.00049 72.6785 26.6553 91.3333 49.6672 91.3333Z" stroke="#F27474" stroke-width="3" stroke-linecap="round" stroke-linejoin="round"/>
<path d="M64.1638 39.0088C65.0398 38.1327 65.0398 36.7123 64.1638 35.8363C63.2877 34.9602 61.8673 34.9602 60.9913 35.8363L52.8284 43.9991C51.2663 45.5612 48.7337 45.5612 47.1716 43.9991L39.0088 35.8363C38.1327 34.9602 36.7123 34.9602 35.8363 35.8363C34.9602 36.7123 34.9602 38.1327 35.8363 39.0088L43.9991 47.1716C45.5612 48.7337 45.5612 51.2663 43.9991 52.8284L35.8363 60.9913C34.9602 61.8673 34.9602 63.2877 35.8363 64.1638C36.7123 65.0398 38.1327 65.0398 39.0088 64.1638L47.1716 56.0009C48.7337 54.4388 51.2663 54.4388 52.8284 56.0009L60.9913 64.1638C61.8673 65.0398 63.2877 65.0398 64.1638 64.1638C65.0398 63.2877 65.0398 61.8673 64.1638 60.9913L56.0009 52.8284C54.4388 51.2663 54.4388 48.7337 56.0009 47.1716L64.1638 39.0088Z" fill="#F27474"/>
</svg>
