<svg width="100" height="100" viewBox="0 0 100 100" fill="none" xmlns="http://www.w3.org/2000/svg">
<path d="M49.667 91.3333C72.6789 91.3333 91.3337 72.6785 91.3337 49.6667C91.3337 26.6548 72.6789 8 49.667 8C26.6551 8 8.00033 26.6548 8.00033 49.6667C8.00033 72.6785 26.6551 91.3333 49.667 91.3333Z" stroke="#EDF8E6" stroke-width="4" stroke-linecap="round" stroke-linejoin="round"/>
<path fill-rule="evenodd" clip-rule="evenodd" d="M69.6608 34.6984C70.5575 35.6297 70.5575 37.1395 69.6608 38.0708L44.4015 64.3016C43.5047 65.2328 42.0508 65.2328 41.1541 64.3016L29.6726 52.3785C28.7758 51.4472 28.7758 49.9374 29.6726 49.0061C30.5693 48.0749 32.0233 48.0749 32.92 49.0061L42.7778 59.243L66.4133 34.6984C67.3101 33.7672 68.764 33.7672 69.6608 34.6984Z" fill="#A5DC86"/>
</svg>
